<mxfile host="65bd71144e">
    <diagram id="eyTBYn_qmuVQhBJMgy0k" name="Page-1">
        <mxGraphModel dx="1471" dy="851" grid="1" gridSize="10" guides="1" tooltips="1" connect="1" arrows="1" fold="1" page="1" pageScale="1" pageWidth="1169" pageHeight="827" math="0" shadow="0">
            <root>
                <mxCell id="0"/>
                <mxCell id="1" parent="0"/>
                <mxCell id="13" value="&lt;font style=&quot;font-size: 14px;&quot;&gt;PC&lt;br&gt;&lt;/font&gt;&lt;div&gt;&lt;font style=&quot;font-size: 14px;&quot;&gt;EtherCAT Master&lt;/font&gt;&lt;/div&gt;" style="rounded=0;whiteSpace=wrap;html=1;arcSize=17;" vertex="1" parent="1">
                    <mxGeometry x="260" y="130" width="120" height="121" as="geometry"/>
                </mxCell>
                <mxCell id="20" value="" style="group" vertex="1" connectable="0" parent="1">
                    <mxGeometry x="440" y="220" width="480" height="200" as="geometry"/>
                </mxCell>
                <mxCell id="21" value="" style="rounded=0;whiteSpace=wrap;html=1;" vertex="1" parent="20">
                    <mxGeometry y="20" width="480" height="140" as="geometry"/>
                </mxCell>
                <mxCell id="22" value="&lt;font style=&quot;font-size: 14px;&quot;&gt;振動子アレイ&lt;/font&gt;" style="rounded=0;whiteSpace=wrap;html=1;arcSize=17;" vertex="1" parent="20">
                    <mxGeometry x="340" y="59" width="120" height="71" as="geometry"/>
                </mxCell>
                <mxCell id="23" value="&lt;font style=&quot;font-size: 14px;&quot;&gt;FPGA&lt;/font&gt;" style="rounded=0;whiteSpace=wrap;html=1;arcSize=17;" vertex="1" parent="20">
                    <mxGeometry x="180" y="59" width="120" height="71" as="geometry"/>
                </mxCell>
                <mxCell id="24" value="&lt;font style=&quot;font-size: 14px;&quot;&gt;CPUボード&lt;/font&gt;&lt;div&gt;&lt;font style=&quot;font-size: 14px;&quot;&gt;EtherCAT Slave&lt;/font&gt;&lt;/div&gt;" style="rounded=0;whiteSpace=wrap;html=1;arcSize=17;" vertex="1" parent="20">
                    <mxGeometry x="20" y="59" width="120" height="71" as="geometry"/>
                </mxCell>
                <mxCell id="25" value="&lt;font style=&quot;font-size: 14px;&quot;&gt;AUTD3デバイス&lt;/font&gt;" style="rounded=0;whiteSpace=wrap;html=1;" vertex="1" parent="20">
                    <mxGeometry x="180" width="120" height="40" as="geometry"/>
                </mxCell>
                <mxCell id="44" value="" style="shape=flexArrow;endArrow=classic;html=1;exitX=1;exitY=0.5;exitDx=0;exitDy=0;entryX=0;entryY=0.5;entryDx=0;entryDy=0;" edge="1" parent="20" source="24" target="23">
                    <mxGeometry width="50" height="50" relative="1" as="geometry">
                        <mxPoint x="150" y="130" as="sourcePoint"/>
                        <mxPoint x="200" y="80" as="targetPoint"/>
                    </mxGeometry>
                </mxCell>
                <mxCell id="45" value="" style="shape=flexArrow;endArrow=classic;html=1;exitX=1;exitY=0.5;exitDx=0;exitDy=0;entryX=0;entryY=0.5;entryDx=0;entryDy=0;" edge="1" parent="20">
                    <mxGeometry width="50" height="50" relative="1" as="geometry">
                        <mxPoint x="300" y="94.32999999999998" as="sourcePoint"/>
                        <mxPoint x="340" y="94.32999999999998" as="targetPoint"/>
                    </mxGeometry>
                </mxCell>
                <mxCell id="26" value="" style="group" vertex="1" connectable="0" parent="1">
                    <mxGeometry x="440" y="490" width="480" height="200" as="geometry"/>
                </mxCell>
                <mxCell id="27" value="" style="rounded=0;whiteSpace=wrap;html=1;" vertex="1" parent="26">
                    <mxGeometry y="20" width="480" height="140" as="geometry"/>
                </mxCell>
                <mxCell id="28" value="&lt;font style=&quot;font-size: 14px;&quot;&gt;振動子アレイ&lt;/font&gt;" style="rounded=0;whiteSpace=wrap;html=1;arcSize=17;" vertex="1" parent="26">
                    <mxGeometry x="340" y="59" width="120" height="71" as="geometry"/>
                </mxCell>
                <mxCell id="29" value="&lt;font style=&quot;font-size: 14px;&quot;&gt;FPGA&lt;/font&gt;" style="rounded=0;whiteSpace=wrap;html=1;arcSize=17;" vertex="1" parent="26">
                    <mxGeometry x="180" y="59" width="120" height="71" as="geometry"/>
                </mxCell>
                <mxCell id="30" value="&lt;font style=&quot;font-size: 14px;&quot;&gt;CPUボード&lt;/font&gt;&lt;div&gt;&lt;font style=&quot;font-size: 14px;&quot;&gt;EtherCAT Slave&lt;/font&gt;&lt;/div&gt;" style="rounded=0;whiteSpace=wrap;html=1;arcSize=17;" vertex="1" parent="26">
                    <mxGeometry x="20" y="59" width="120" height="71" as="geometry"/>
                </mxCell>
                <mxCell id="31" value="&lt;font style=&quot;font-size: 14px;&quot;&gt;AUTD3デバイス&lt;/font&gt;" style="rounded=0;whiteSpace=wrap;html=1;" vertex="1" parent="26">
                    <mxGeometry x="180" width="120" height="40" as="geometry"/>
                </mxCell>
                <mxCell id="42" value="" style="shape=flexArrow;endArrow=classic;html=1;entryX=0.25;entryY=1;entryDx=0;entryDy=0;width=9;endSize=4.347619047619048;" edge="1" parent="26">
                    <mxGeometry width="50" height="50" relative="1" as="geometry">
                        <mxPoint x="50" y="59" as="sourcePoint"/>
                        <mxPoint x="50" y="-11" as="targetPoint"/>
                        <Array as="points"/>
                    </mxGeometry>
                </mxCell>
                <mxCell id="43" value="" style="shape=flexArrow;endArrow=classic;html=1;exitX=0.75;exitY=1;exitDx=0;exitDy=0;width=9;endSize=4.347619047619048;" edge="1" parent="26">
                    <mxGeometry width="50" height="50" relative="1" as="geometry">
                        <mxPoint x="110" y="-11" as="sourcePoint"/>
                        <mxPoint x="110" y="59" as="targetPoint"/>
                        <Array as="points"/>
                    </mxGeometry>
                </mxCell>
                <mxCell id="48" value="" style="shape=flexArrow;endArrow=classic;html=1;exitX=1;exitY=0.5;exitDx=0;exitDy=0;entryX=0;entryY=0.5;entryDx=0;entryDy=0;" edge="1" parent="26">
                    <mxGeometry width="50" height="50" relative="1" as="geometry">
                        <mxPoint x="300" y="99.71000000000004" as="sourcePoint"/>
                        <mxPoint x="340" y="99.71000000000004" as="targetPoint"/>
                    </mxGeometry>
                </mxCell>
                <mxCell id="49" value="" style="shape=flexArrow;endArrow=classic;html=1;exitX=1;exitY=0.5;exitDx=0;exitDy=0;entryX=0;entryY=0.5;entryDx=0;entryDy=0;" edge="1" parent="26">
                    <mxGeometry width="50" height="50" relative="1" as="geometry">
                        <mxPoint x="140" y="99.71000000000004" as="sourcePoint"/>
                        <mxPoint x="180" y="99.71000000000004" as="targetPoint"/>
                    </mxGeometry>
                </mxCell>
                <mxCell id="33" value="" style="shape=flexArrow;endArrow=classic;html=1;exitX=1.008;exitY=0.314;exitDx=0;exitDy=0;exitPerimeter=0;entryX=0.75;entryY=0;entryDx=0;entryDy=0;width=9;endSize=4.347619047619048;" edge="1" parent="1" source="13" target="24">
                    <mxGeometry width="50" height="50" relative="1" as="geometry">
                        <mxPoint x="600" y="470" as="sourcePoint"/>
                        <mxPoint x="650" y="420" as="targetPoint"/>
                        <Array as="points">
                            <mxPoint x="550" y="170"/>
                        </Array>
                    </mxGeometry>
                </mxCell>
                <mxCell id="34" value="&lt;font style=&quot;font-size: 36px;&quot;&gt;⋮&lt;/font&gt;" style="text;html=1;align=center;verticalAlign=middle;whiteSpace=wrap;rounded=0;fontSize=19;" vertex="1" parent="1">
                    <mxGeometry x="645" y="410" width="70" height="80" as="geometry"/>
                </mxCell>
                <mxCell id="35" value="" style="shape=flexArrow;endArrow=classic;html=1;exitX=0.75;exitY=1;exitDx=0;exitDy=0;width=9;endSize=4.347619047619048;" edge="1" parent="1" source="24">
                    <mxGeometry width="50" height="50" relative="1" as="geometry">
                        <mxPoint x="331" y="198" as="sourcePoint"/>
                        <mxPoint x="550" y="420" as="targetPoint"/>
                        <Array as="points"/>
                    </mxGeometry>
                </mxCell>
                <mxCell id="36" value="" style="shape=flexArrow;endArrow=classic;html=1;entryX=0.25;entryY=1;entryDx=0;entryDy=0;width=9;endSize=4.347619047619048;" edge="1" parent="1" target="24">
                    <mxGeometry width="50" height="50" relative="1" as="geometry">
                        <mxPoint x="490" y="420" as="sourcePoint"/>
                        <mxPoint x="560" y="559" as="targetPoint"/>
                        <Array as="points"/>
                    </mxGeometry>
                </mxCell>
                <mxCell id="37" value="" style="shape=flexArrow;endArrow=classic;html=1;exitX=0.25;exitY=0;exitDx=0;exitDy=0;entryX=1;entryY=0.75;entryDx=0;entryDy=0;width=9;endSize=4.347619047619048;" edge="1" parent="1" source="24" target="13">
                    <mxGeometry width="50" height="50" relative="1" as="geometry">
                        <mxPoint x="331" y="198" as="sourcePoint"/>
                        <mxPoint x="560" y="259" as="targetPoint"/>
                        <Array as="points">
                            <mxPoint x="490" y="221"/>
                        </Array>
                    </mxGeometry>
                </mxCell>
                <mxCell id="38" value="&lt;font style=&quot;font-size: 36px;&quot;&gt;⋮&lt;/font&gt;" style="text;html=1;align=center;verticalAlign=middle;whiteSpace=wrap;rounded=0;fontSize=19;" vertex="1" parent="1">
                    <mxGeometry x="515" y="410" width="70" height="80" as="geometry"/>
                </mxCell>
                <mxCell id="39" value="&lt;font style=&quot;font-size: 36px;&quot;&gt;⋮&lt;/font&gt;" style="text;html=1;align=center;verticalAlign=middle;whiteSpace=wrap;rounded=0;fontSize=19;" vertex="1" parent="1">
                    <mxGeometry x="470" y="410" width="40" height="80" as="geometry"/>
                </mxCell>
            </root>
        </mxGraphModel>
    </diagram>
    <diagram id="fHihk_PQPo_8azwAlQ5E" name="Page-2">
        <mxGraphModel dx="1226" dy="709" grid="1" gridSize="10" guides="1" tooltips="1" connect="1" arrows="1" fold="1" page="1" pageScale="1" pageWidth="1169" pageHeight="827" math="0" shadow="0">
            <root>
                <mxCell id="0"/>
                <mxCell id="1" parent="0"/>
                <mxCell id="QyYgvs8aMEypXdqiN2I_-1" value="&lt;font style=&quot;font-size: 14px;&quot;&gt;PC&lt;br&gt;&lt;/font&gt;&lt;div&gt;&lt;font style=&quot;font-size: 14px;&quot;&gt;EtherCAT Master&lt;/font&gt;&lt;/div&gt;" style="rounded=0;whiteSpace=wrap;html=1;arcSize=17;" vertex="1" parent="1">
                    <mxGeometry x="260" y="130" width="120" height="121" as="geometry"/>
                </mxCell>
                <mxCell id="QyYgvs8aMEypXdqiN2I_-2" value="" style="group" vertex="1" connectable="0" parent="1">
                    <mxGeometry x="440" y="220" width="480" height="200" as="geometry"/>
                </mxCell>
                <mxCell id="QyYgvs8aMEypXdqiN2I_-3" value="" style="rounded=0;whiteSpace=wrap;html=1;strokeColor=#CCCCCC;" vertex="1" parent="QyYgvs8aMEypXdqiN2I_-2">
                    <mxGeometry y="20" width="480" height="140" as="geometry"/>
                </mxCell>
                <mxCell id="QyYgvs8aMEypXdqiN2I_-4" value="&lt;font style=&quot;font-size: 14px; color: rgb(204, 204, 204);&quot;&gt;振動子アレイ&lt;/font&gt;" style="rounded=0;whiteSpace=wrap;html=1;arcSize=17;strokeColor=#CCCCCC;" vertex="1" parent="QyYgvs8aMEypXdqiN2I_-2">
                    <mxGeometry x="340" y="59" width="120" height="71" as="geometry"/>
                </mxCell>
                <mxCell id="QyYgvs8aMEypXdqiN2I_-5" value="&lt;font style=&quot;font-size: 14px; color: rgb(204, 204, 204);&quot;&gt;FPGA&lt;/font&gt;" style="rounded=0;whiteSpace=wrap;html=1;arcSize=17;strokeColor=#CCCCCC;" vertex="1" parent="QyYgvs8aMEypXdqiN2I_-2">
                    <mxGeometry x="180" y="59" width="120" height="71" as="geometry"/>
                </mxCell>
                <mxCell id="QyYgvs8aMEypXdqiN2I_-6" value="&lt;font style=&quot;font-size: 14px;&quot;&gt;CPUボード&lt;/font&gt;&lt;div&gt;&lt;font style=&quot;font-size: 14px;&quot;&gt;EtherCAT Slave&lt;/font&gt;&lt;/div&gt;" style="rounded=0;whiteSpace=wrap;html=1;arcSize=17;" vertex="1" parent="QyYgvs8aMEypXdqiN2I_-2">
                    <mxGeometry x="20" y="59" width="120" height="71" as="geometry"/>
                </mxCell>
                <mxCell id="QyYgvs8aMEypXdqiN2I_-7" value="&lt;font style=&quot;font-size: 14px; color: rgb(204, 204, 204);&quot;&gt;AUTD3デバイス&lt;/font&gt;" style="rounded=0;whiteSpace=wrap;html=1;strokeColor=#CCCCCC;" vertex="1" parent="QyYgvs8aMEypXdqiN2I_-2">
                    <mxGeometry x="180" width="120" height="40" as="geometry"/>
                </mxCell>
                <mxCell id="QyYgvs8aMEypXdqiN2I_-8" value="" style="shape=flexArrow;endArrow=classic;html=1;exitX=1;exitY=0.5;exitDx=0;exitDy=0;entryX=0;entryY=0.5;entryDx=0;entryDy=0;strokeColor=#CCCCCC;" edge="1" parent="QyYgvs8aMEypXdqiN2I_-2" source="QyYgvs8aMEypXdqiN2I_-6" target="QyYgvs8aMEypXdqiN2I_-5">
                    <mxGeometry width="50" height="50" relative="1" as="geometry">
                        <mxPoint x="150" y="130" as="sourcePoint"/>
                        <mxPoint x="200" y="80" as="targetPoint"/>
                    </mxGeometry>
                </mxCell>
                <mxCell id="QyYgvs8aMEypXdqiN2I_-9" value="" style="shape=flexArrow;endArrow=classic;html=1;exitX=1;exitY=0.5;exitDx=0;exitDy=0;entryX=0;entryY=0.5;entryDx=0;entryDy=0;strokeColor=#CCCCCC;" edge="1" parent="QyYgvs8aMEypXdqiN2I_-2">
                    <mxGeometry width="50" height="50" relative="1" as="geometry">
                        <mxPoint x="300" y="94.32999999999998" as="sourcePoint"/>
                        <mxPoint x="340" y="94.32999999999998" as="targetPoint"/>
                    </mxGeometry>
                </mxCell>
                <mxCell id="QyYgvs8aMEypXdqiN2I_-10" value="" style="group" vertex="1" connectable="0" parent="1">
                    <mxGeometry x="440" y="490" width="480" height="200" as="geometry"/>
                </mxCell>
                <mxCell id="QyYgvs8aMEypXdqiN2I_-11" value="" style="rounded=0;whiteSpace=wrap;html=1;strokeColor=#CCCCCC;" vertex="1" parent="QyYgvs8aMEypXdqiN2I_-10">
                    <mxGeometry y="20" width="480" height="140" as="geometry"/>
                </mxCell>
                <mxCell id="QyYgvs8aMEypXdqiN2I_-12" value="&lt;font style=&quot;font-size: 14px; color: rgb(204, 204, 204);&quot;&gt;振動子アレイ&lt;/font&gt;" style="rounded=0;whiteSpace=wrap;html=1;arcSize=17;strokeColor=#CCCCCC;fontColor=#CCCCCC;" vertex="1" parent="QyYgvs8aMEypXdqiN2I_-10">
                    <mxGeometry x="340" y="59" width="120" height="71" as="geometry"/>
                </mxCell>
                <mxCell id="QyYgvs8aMEypXdqiN2I_-13" value="&lt;font style=&quot;font-size: 14px; color: rgb(204, 204, 204);&quot;&gt;FPGA&lt;/font&gt;" style="rounded=0;whiteSpace=wrap;html=1;arcSize=17;strokeColor=#CCCCCC;fontColor=#CCCCCC;" vertex="1" parent="QyYgvs8aMEypXdqiN2I_-10">
                    <mxGeometry x="180" y="59" width="120" height="71" as="geometry"/>
                </mxCell>
                <mxCell id="QyYgvs8aMEypXdqiN2I_-14" value="&lt;font style=&quot;font-size: 14px;&quot;&gt;CPUボード&lt;/font&gt;&lt;div&gt;&lt;font style=&quot;font-size: 14px;&quot;&gt;EtherCAT Slave&lt;/font&gt;&lt;/div&gt;" style="rounded=0;whiteSpace=wrap;html=1;arcSize=17;" vertex="1" parent="QyYgvs8aMEypXdqiN2I_-10">
                    <mxGeometry x="20" y="59" width="120" height="71" as="geometry"/>
                </mxCell>
                <mxCell id="QyYgvs8aMEypXdqiN2I_-15" value="&lt;font style=&quot;font-size: 14px; color: rgb(204, 204, 204);&quot;&gt;AUTD3デバイス&lt;/font&gt;" style="rounded=0;whiteSpace=wrap;html=1;strokeColor=#CCCCCC;fontColor=#CCCCCC;" vertex="1" parent="QyYgvs8aMEypXdqiN2I_-10">
                    <mxGeometry x="180" width="120" height="40" as="geometry"/>
                </mxCell>
                <mxCell id="QyYgvs8aMEypXdqiN2I_-16" value="" style="shape=flexArrow;endArrow=classic;html=1;entryX=0.25;entryY=1;entryDx=0;entryDy=0;width=9;endSize=4.347619047619048;" edge="1" parent="QyYgvs8aMEypXdqiN2I_-10">
                    <mxGeometry width="50" height="50" relative="1" as="geometry">
                        <mxPoint x="50" y="59" as="sourcePoint"/>
                        <mxPoint x="50" y="-11" as="targetPoint"/>
                        <Array as="points"/>
                    </mxGeometry>
                </mxCell>
                <mxCell id="QyYgvs8aMEypXdqiN2I_-17" value="" style="shape=flexArrow;endArrow=classic;html=1;exitX=0.75;exitY=1;exitDx=0;exitDy=0;width=9;endSize=4.347619047619048;" edge="1" parent="QyYgvs8aMEypXdqiN2I_-10">
                    <mxGeometry width="50" height="50" relative="1" as="geometry">
                        <mxPoint x="110" y="-11" as="sourcePoint"/>
                        <mxPoint x="110" y="59" as="targetPoint"/>
                        <Array as="points"/>
                    </mxGeometry>
                </mxCell>
                <mxCell id="QyYgvs8aMEypXdqiN2I_-18" value="" style="shape=flexArrow;endArrow=classic;html=1;exitX=1;exitY=0.5;exitDx=0;exitDy=0;entryX=0;entryY=0.5;entryDx=0;entryDy=0;strokeColor=#CCCCCC;" edge="1" parent="QyYgvs8aMEypXdqiN2I_-10">
                    <mxGeometry width="50" height="50" relative="1" as="geometry">
                        <mxPoint x="300" y="99.71000000000004" as="sourcePoint"/>
                        <mxPoint x="340" y="99.71000000000004" as="targetPoint"/>
                    </mxGeometry>
                </mxCell>
                <mxCell id="QyYgvs8aMEypXdqiN2I_-19" value="" style="shape=flexArrow;endArrow=classic;html=1;exitX=1;exitY=0.5;exitDx=0;exitDy=0;entryX=0;entryY=0.5;entryDx=0;entryDy=0;strokeColor=#CCCCCC;" edge="1" parent="QyYgvs8aMEypXdqiN2I_-10">
                    <mxGeometry width="50" height="50" relative="1" as="geometry">
                        <mxPoint x="140" y="99.71000000000004" as="sourcePoint"/>
                        <mxPoint x="180" y="99.71000000000004" as="targetPoint"/>
                    </mxGeometry>
                </mxCell>
                <mxCell id="QyYgvs8aMEypXdqiN2I_-20" value="" style="shape=flexArrow;endArrow=classic;html=1;exitX=1.008;exitY=0.314;exitDx=0;exitDy=0;exitPerimeter=0;entryX=0.75;entryY=0;entryDx=0;entryDy=0;width=9;endSize=4.347619047619048;" edge="1" parent="1" source="QyYgvs8aMEypXdqiN2I_-1" target="QyYgvs8aMEypXdqiN2I_-6">
                    <mxGeometry width="50" height="50" relative="1" as="geometry">
                        <mxPoint x="600" y="470" as="sourcePoint"/>
                        <mxPoint x="650" y="420" as="targetPoint"/>
                        <Array as="points">
                            <mxPoint x="550" y="170"/>
                        </Array>
                    </mxGeometry>
                </mxCell>
                <mxCell id="QyYgvs8aMEypXdqiN2I_-21" value="&lt;font style=&quot;font-size: 36px; color: rgb(204, 204, 204);&quot;&gt;⋮&lt;/font&gt;" style="text;html=1;align=center;verticalAlign=middle;whiteSpace=wrap;rounded=0;fontSize=19;fontColor=#CCCCCC;" vertex="1" parent="1">
                    <mxGeometry x="645" y="410" width="70" height="80" as="geometry"/>
                </mxCell>
                <mxCell id="QyYgvs8aMEypXdqiN2I_-22" value="" style="shape=flexArrow;endArrow=classic;html=1;exitX=0.75;exitY=1;exitDx=0;exitDy=0;width=9;endSize=4.347619047619048;" edge="1" parent="1" source="QyYgvs8aMEypXdqiN2I_-6">
                    <mxGeometry width="50" height="50" relative="1" as="geometry">
                        <mxPoint x="331" y="198" as="sourcePoint"/>
                        <mxPoint x="550" y="420" as="targetPoint"/>
                        <Array as="points"/>
                    </mxGeometry>
                </mxCell>
                <mxCell id="QyYgvs8aMEypXdqiN2I_-23" value="" style="shape=flexArrow;endArrow=classic;html=1;entryX=0.25;entryY=1;entryDx=0;entryDy=0;width=9;endSize=4.347619047619048;" edge="1" parent="1" target="QyYgvs8aMEypXdqiN2I_-6">
                    <mxGeometry width="50" height="50" relative="1" as="geometry">
                        <mxPoint x="490" y="420" as="sourcePoint"/>
                        <mxPoint x="560" y="559" as="targetPoint"/>
                        <Array as="points"/>
                    </mxGeometry>
                </mxCell>
                <mxCell id="QyYgvs8aMEypXdqiN2I_-24" value="" style="shape=flexArrow;endArrow=classic;html=1;exitX=0.25;exitY=0;exitDx=0;exitDy=0;entryX=1;entryY=0.75;entryDx=0;entryDy=0;width=9;endSize=4.347619047619048;" edge="1" parent="1" source="QyYgvs8aMEypXdqiN2I_-6" target="QyYgvs8aMEypXdqiN2I_-1">
                    <mxGeometry width="50" height="50" relative="1" as="geometry">
                        <mxPoint x="331" y="198" as="sourcePoint"/>
                        <mxPoint x="560" y="259" as="targetPoint"/>
                        <Array as="points">
                            <mxPoint x="490" y="221"/>
                        </Array>
                    </mxGeometry>
                </mxCell>
                <mxCell id="QyYgvs8aMEypXdqiN2I_-25" value="&lt;font style=&quot;font-size: 36px;&quot;&gt;⋮&lt;/font&gt;" style="text;html=1;align=center;verticalAlign=middle;whiteSpace=wrap;rounded=0;fontSize=19;" vertex="1" parent="1">
                    <mxGeometry x="515" y="410" width="70" height="80" as="geometry"/>
                </mxCell>
                <mxCell id="QyYgvs8aMEypXdqiN2I_-26" value="&lt;font style=&quot;font-size: 36px;&quot;&gt;⋮&lt;/font&gt;" style="text;html=1;align=center;verticalAlign=middle;whiteSpace=wrap;rounded=0;fontSize=19;" vertex="1" parent="1">
                    <mxGeometry x="470" y="410" width="40" height="80" as="geometry"/>
                </mxCell>
            </root>
        </mxGraphModel>
    </diagram>
    <diagram id="oWc6hdGDq26BjvzkoXp5" name="Page-3">
        <mxGraphModel dx="1226" dy="709" grid="1" gridSize="10" guides="1" tooltips="1" connect="1" arrows="1" fold="1" page="1" pageScale="1" pageWidth="1169" pageHeight="827" math="0" shadow="0">
            <root>
                <mxCell id="0"/>
                <mxCell id="1" parent="0"/>
                <mxCell id="T38-HX2KWQwejZzEdP8X-1" value="&lt;font style=&quot;font-size: 14px; color: rgb(204, 204, 204);&quot;&gt;PC&lt;br&gt;&lt;/font&gt;&lt;div&gt;&lt;font style=&quot;font-size: 14px; color: rgb(204, 204, 204);&quot;&gt;EtherCAT Master&lt;/font&gt;&lt;/div&gt;" style="rounded=0;whiteSpace=wrap;html=1;arcSize=17;strokeColor=#CCCCCC;" vertex="1" parent="1">
                    <mxGeometry x="260" y="130" width="120" height="121" as="geometry"/>
                </mxCell>
                <mxCell id="T38-HX2KWQwejZzEdP8X-2" value="" style="group" vertex="1" connectable="0" parent="1">
                    <mxGeometry x="440" y="220" width="480" height="200" as="geometry"/>
                </mxCell>
                <mxCell id="T38-HX2KWQwejZzEdP8X-3" value="" style="rounded=0;whiteSpace=wrap;html=1;strokeColor=#CCCCCC;" vertex="1" parent="T38-HX2KWQwejZzEdP8X-2">
                    <mxGeometry y="20" width="480" height="140" as="geometry"/>
                </mxCell>
                <mxCell id="T38-HX2KWQwejZzEdP8X-4" value="&lt;font style=&quot;font-size: 14px; color: rgb(204, 204, 204);&quot;&gt;振動子アレイ&lt;/font&gt;" style="rounded=0;whiteSpace=wrap;html=1;arcSize=17;strokeColor=#CCCCCC;" vertex="1" parent="T38-HX2KWQwejZzEdP8X-2">
                    <mxGeometry x="340" y="59" width="120" height="71" as="geometry"/>
                </mxCell>
                <mxCell id="T38-HX2KWQwejZzEdP8X-5" value="&lt;font style=&quot;font-size: 14px; color: rgb(0, 0, 0);&quot;&gt;FPGA&lt;/font&gt;" style="rounded=0;whiteSpace=wrap;html=1;arcSize=17;strokeColor=#000000;" vertex="1" parent="T38-HX2KWQwejZzEdP8X-2">
                    <mxGeometry x="180" y="59" width="120" height="71" as="geometry"/>
                </mxCell>
                <mxCell id="T38-HX2KWQwejZzEdP8X-6" value="&lt;font style=&quot;font-size: 14px;&quot;&gt;CPUボード&lt;/font&gt;&lt;div&gt;&lt;font style=&quot;font-size: 14px;&quot;&gt;EtherCAT Slave&lt;/font&gt;&lt;/div&gt;" style="rounded=0;whiteSpace=wrap;html=1;arcSize=17;" vertex="1" parent="T38-HX2KWQwejZzEdP8X-2">
                    <mxGeometry x="20" y="59" width="120" height="71" as="geometry"/>
                </mxCell>
                <mxCell id="T38-HX2KWQwejZzEdP8X-7" value="&lt;font style=&quot;font-size: 14px; color: rgb(204, 204, 204);&quot;&gt;AUTD3デバイス&lt;/font&gt;" style="rounded=0;whiteSpace=wrap;html=1;strokeColor=#CCCCCC;" vertex="1" parent="T38-HX2KWQwejZzEdP8X-2">
                    <mxGeometry x="180" width="120" height="40" as="geometry"/>
                </mxCell>
                <mxCell id="T38-HX2KWQwejZzEdP8X-8" value="" style="shape=flexArrow;endArrow=classic;html=1;exitX=1;exitY=0.5;exitDx=0;exitDy=0;entryX=0;entryY=0.5;entryDx=0;entryDy=0;strokeColor=#000000;" edge="1" parent="T38-HX2KWQwejZzEdP8X-2" source="T38-HX2KWQwejZzEdP8X-6" target="T38-HX2KWQwejZzEdP8X-5">
                    <mxGeometry width="50" height="50" relative="1" as="geometry">
                        <mxPoint x="150" y="130" as="sourcePoint"/>
                        <mxPoint x="200" y="80" as="targetPoint"/>
                    </mxGeometry>
                </mxCell>
                <mxCell id="T38-HX2KWQwejZzEdP8X-9" value="" style="shape=flexArrow;endArrow=classic;html=1;exitX=1;exitY=0.5;exitDx=0;exitDy=0;entryX=0;entryY=0.5;entryDx=0;entryDy=0;strokeColor=#CCCCCC;" edge="1" parent="T38-HX2KWQwejZzEdP8X-2">
                    <mxGeometry width="50" height="50" relative="1" as="geometry">
                        <mxPoint x="300" y="94.32999999999998" as="sourcePoint"/>
                        <mxPoint x="340" y="94.32999999999998" as="targetPoint"/>
                    </mxGeometry>
                </mxCell>
                <mxCell id="T38-HX2KWQwejZzEdP8X-10" value="" style="group" vertex="1" connectable="0" parent="1">
                    <mxGeometry x="440" y="490" width="480" height="200" as="geometry"/>
                </mxCell>
                <mxCell id="T38-HX2KWQwejZzEdP8X-11" value="" style="rounded=0;whiteSpace=wrap;html=1;strokeColor=#CCCCCC;" vertex="1" parent="T38-HX2KWQwejZzEdP8X-10">
                    <mxGeometry y="20" width="480" height="140" as="geometry"/>
                </mxCell>
                <mxCell id="T38-HX2KWQwejZzEdP8X-12" value="&lt;font style=&quot;font-size: 14px; color: rgb(204, 204, 204);&quot;&gt;振動子アレイ&lt;/font&gt;" style="rounded=0;whiteSpace=wrap;html=1;arcSize=17;strokeColor=#CCCCCC;fontColor=#CCCCCC;" vertex="1" parent="T38-HX2KWQwejZzEdP8X-10">
                    <mxGeometry x="340" y="59" width="120" height="71" as="geometry"/>
                </mxCell>
                <mxCell id="T38-HX2KWQwejZzEdP8X-13" value="&lt;font style=&quot;font-size: 14px; color: rgb(0, 0, 0);&quot;&gt;FPGA&lt;/font&gt;" style="rounded=0;whiteSpace=wrap;html=1;arcSize=17;strokeColor=#000000;fontColor=#CCCCCC;" vertex="1" parent="T38-HX2KWQwejZzEdP8X-10">
                    <mxGeometry x="180" y="59" width="120" height="71" as="geometry"/>
                </mxCell>
                <mxCell id="T38-HX2KWQwejZzEdP8X-14" value="&lt;font style=&quot;font-size: 14px;&quot;&gt;CPUボード&lt;/font&gt;&lt;div&gt;&lt;font style=&quot;font-size: 14px;&quot;&gt;EtherCAT Slave&lt;/font&gt;&lt;/div&gt;" style="rounded=0;whiteSpace=wrap;html=1;arcSize=17;" vertex="1" parent="T38-HX2KWQwejZzEdP8X-10">
                    <mxGeometry x="20" y="59" width="120" height="71" as="geometry"/>
                </mxCell>
                <mxCell id="T38-HX2KWQwejZzEdP8X-15" value="&lt;font style=&quot;font-size: 14px; color: rgb(204, 204, 204);&quot;&gt;AUTD3デバイス&lt;/font&gt;" style="rounded=0;whiteSpace=wrap;html=1;strokeColor=#CCCCCC;fontColor=#CCCCCC;" vertex="1" parent="T38-HX2KWQwejZzEdP8X-10">
                    <mxGeometry x="180" width="120" height="40" as="geometry"/>
                </mxCell>
                <mxCell id="T38-HX2KWQwejZzEdP8X-16" value="" style="shape=flexArrow;endArrow=classic;html=1;entryX=0.25;entryY=1;entryDx=0;entryDy=0;width=9;endSize=4.347619047619048;strokeColor=#CCCCCC;" edge="1" parent="T38-HX2KWQwejZzEdP8X-10">
                    <mxGeometry width="50" height="50" relative="1" as="geometry">
                        <mxPoint x="50" y="59" as="sourcePoint"/>
                        <mxPoint x="50" y="-11" as="targetPoint"/>
                        <Array as="points"/>
                    </mxGeometry>
                </mxCell>
                <mxCell id="T38-HX2KWQwejZzEdP8X-17" value="" style="shape=flexArrow;endArrow=classic;html=1;exitX=0.75;exitY=1;exitDx=0;exitDy=0;width=9;endSize=4.347619047619048;strokeColor=#CCCCCC;" edge="1" parent="T38-HX2KWQwejZzEdP8X-10">
                    <mxGeometry width="50" height="50" relative="1" as="geometry">
                        <mxPoint x="110" y="-11" as="sourcePoint"/>
                        <mxPoint x="110" y="59" as="targetPoint"/>
                        <Array as="points"/>
                    </mxGeometry>
                </mxCell>
                <mxCell id="T38-HX2KWQwejZzEdP8X-18" value="" style="shape=flexArrow;endArrow=classic;html=1;exitX=1;exitY=0.5;exitDx=0;exitDy=0;entryX=0;entryY=0.5;entryDx=0;entryDy=0;strokeColor=#CCCCCC;" edge="1" parent="T38-HX2KWQwejZzEdP8X-10">
                    <mxGeometry width="50" height="50" relative="1" as="geometry">
                        <mxPoint x="300" y="99.71000000000004" as="sourcePoint"/>
                        <mxPoint x="340" y="99.71000000000004" as="targetPoint"/>
                    </mxGeometry>
                </mxCell>
                <mxCell id="T38-HX2KWQwejZzEdP8X-19" value="" style="shape=flexArrow;endArrow=classic;html=1;exitX=1;exitY=0.5;exitDx=0;exitDy=0;entryX=0;entryY=0.5;entryDx=0;entryDy=0;strokeColor=#000000;" edge="1" parent="T38-HX2KWQwejZzEdP8X-10">
                    <mxGeometry width="50" height="50" relative="1" as="geometry">
                        <mxPoint x="140" y="99.71000000000004" as="sourcePoint"/>
                        <mxPoint x="180" y="99.71000000000004" as="targetPoint"/>
                    </mxGeometry>
                </mxCell>
                <mxCell id="T38-HX2KWQwejZzEdP8X-20" value="" style="shape=flexArrow;endArrow=classic;html=1;exitX=1.008;exitY=0.314;exitDx=0;exitDy=0;exitPerimeter=0;entryX=0.75;entryY=0;entryDx=0;entryDy=0;width=9;endSize=4.347619047619048;strokeColor=#CCCCCC;" edge="1" parent="1" source="T38-HX2KWQwejZzEdP8X-1" target="T38-HX2KWQwejZzEdP8X-6">
                    <mxGeometry width="50" height="50" relative="1" as="geometry">
                        <mxPoint x="600" y="470" as="sourcePoint"/>
                        <mxPoint x="650" y="420" as="targetPoint"/>
                        <Array as="points">
                            <mxPoint x="550" y="170"/>
                        </Array>
                    </mxGeometry>
                </mxCell>
                <mxCell id="T38-HX2KWQwejZzEdP8X-21" value="&lt;font style=&quot;font-size: 36px; color: rgb(204, 204, 204);&quot;&gt;⋮&lt;/font&gt;" style="text;html=1;align=center;verticalAlign=middle;whiteSpace=wrap;rounded=0;fontSize=19;fontColor=#CCCCCC;" vertex="1" parent="1">
                    <mxGeometry x="645" y="410" width="70" height="80" as="geometry"/>
                </mxCell>
                <mxCell id="T38-HX2KWQwejZzEdP8X-22" value="" style="shape=flexArrow;endArrow=classic;html=1;exitX=0.75;exitY=1;exitDx=0;exitDy=0;width=9;endSize=4.347619047619048;strokeColor=#CCCCCC;" edge="1" parent="1" source="T38-HX2KWQwejZzEdP8X-6">
                    <mxGeometry width="50" height="50" relative="1" as="geometry">
                        <mxPoint x="331" y="198" as="sourcePoint"/>
                        <mxPoint x="550" y="420" as="targetPoint"/>
                        <Array as="points"/>
                    </mxGeometry>
                </mxCell>
                <mxCell id="T38-HX2KWQwejZzEdP8X-23" value="" style="shape=flexArrow;endArrow=classic;html=1;entryX=0.25;entryY=1;entryDx=0;entryDy=0;width=9;endSize=4.347619047619048;strokeColor=#CCCCCC;" edge="1" parent="1" target="T38-HX2KWQwejZzEdP8X-6">
                    <mxGeometry width="50" height="50" relative="1" as="geometry">
                        <mxPoint x="490" y="420" as="sourcePoint"/>
                        <mxPoint x="560" y="559" as="targetPoint"/>
                        <Array as="points"/>
                    </mxGeometry>
                </mxCell>
                <mxCell id="T38-HX2KWQwejZzEdP8X-24" value="" style="shape=flexArrow;endArrow=classic;html=1;exitX=0.25;exitY=0;exitDx=0;exitDy=0;entryX=1;entryY=0.75;entryDx=0;entryDy=0;width=9;endSize=4.347619047619048;strokeColor=#CCCCCC;" edge="1" parent="1" source="T38-HX2KWQwejZzEdP8X-6" target="T38-HX2KWQwejZzEdP8X-1">
                    <mxGeometry width="50" height="50" relative="1" as="geometry">
                        <mxPoint x="331" y="198" as="sourcePoint"/>
                        <mxPoint x="560" y="259" as="targetPoint"/>
                        <Array as="points">
                            <mxPoint x="490" y="221"/>
                        </Array>
                    </mxGeometry>
                </mxCell>
                <mxCell id="T38-HX2KWQwejZzEdP8X-25" value="&lt;font style=&quot;font-size: 36px; color: rgb(204, 204, 204);&quot;&gt;⋮&lt;/font&gt;" style="text;html=1;align=center;verticalAlign=middle;whiteSpace=wrap;rounded=0;fontSize=19;" vertex="1" parent="1">
                    <mxGeometry x="515" y="410" width="70" height="80" as="geometry"/>
                </mxCell>
                <mxCell id="T38-HX2KWQwejZzEdP8X-26" value="&lt;font style=&quot;font-size: 36px; color: rgb(204, 204, 204);&quot;&gt;⋮&lt;/font&gt;" style="text;html=1;align=center;verticalAlign=middle;whiteSpace=wrap;rounded=0;fontSize=19;" vertex="1" parent="1">
                    <mxGeometry x="470" y="410" width="40" height="80" as="geometry"/>
                </mxCell>
            </root>
        </mxGraphModel>
    </diagram>
    <diagram id="Sra9qRaEVdXO-T6bIaMF" name="Page-4">
        <mxGraphModel dx="1014" dy="587" grid="1" gridSize="10" guides="1" tooltips="1" connect="1" arrows="1" fold="1" page="1" pageScale="1" pageWidth="1169" pageHeight="827" math="0" shadow="0">
            <root>
                <mxCell id="0"/>
                <mxCell id="1" parent="0"/>
                <mxCell id="m86QWHCUqIosLc6Ad717-1" value="&lt;font style=&quot;font-size: 14px; color: rgb(0, 0, 0);&quot;&gt;PC&lt;br&gt;&lt;/font&gt;&lt;div&gt;&lt;font style=&quot;font-size: 14px; color: rgb(0, 0, 0);&quot;&gt;EtherCAT Master&lt;/font&gt;&lt;/div&gt;" style="rounded=0;whiteSpace=wrap;html=1;arcSize=17;strokeColor=#000000;" vertex="1" parent="1">
                    <mxGeometry x="260" y="130" width="120" height="121" as="geometry"/>
                </mxCell>
                <mxCell id="m86QWHCUqIosLc6Ad717-2" value="" style="group" vertex="1" connectable="0" parent="1">
                    <mxGeometry x="440" y="220" width="480" height="200" as="geometry"/>
                </mxCell>
                <mxCell id="m86QWHCUqIosLc6Ad717-3" value="" style="rounded=0;whiteSpace=wrap;html=1;strokeColor=#000000;" vertex="1" parent="m86QWHCUqIosLc6Ad717-2">
                    <mxGeometry y="20" width="480" height="140" as="geometry"/>
                </mxCell>
                <mxCell id="m86QWHCUqIosLc6Ad717-4" value="&lt;font style=&quot;font-size: 14px; color: rgb(204, 204, 204);&quot;&gt;振動子アレイ&lt;/font&gt;" style="rounded=0;whiteSpace=wrap;html=1;arcSize=17;strokeColor=#CCCCCC;" vertex="1" parent="m86QWHCUqIosLc6Ad717-2">
                    <mxGeometry x="340" y="59" width="120" height="71" as="geometry"/>
                </mxCell>
                <mxCell id="m86QWHCUqIosLc6Ad717-5" value="&lt;font style=&quot;font-size: 14px; color: rgb(0, 0, 0);&quot;&gt;FPGA&lt;/font&gt;" style="rounded=0;whiteSpace=wrap;html=1;arcSize=17;strokeColor=#000000;" vertex="1" parent="m86QWHCUqIosLc6Ad717-2">
                    <mxGeometry x="180" y="59" width="120" height="71" as="geometry"/>
                </mxCell>
                <mxCell id="m86QWHCUqIosLc6Ad717-6" value="&lt;font style=&quot;font-size: 14px;&quot;&gt;CPUボード&lt;/font&gt;&lt;div&gt;&lt;font style=&quot;font-size: 14px;&quot;&gt;EtherCAT Slave&lt;/font&gt;&lt;/div&gt;" style="rounded=0;whiteSpace=wrap;html=1;arcSize=17;" vertex="1" parent="m86QWHCUqIosLc6Ad717-2">
                    <mxGeometry x="20" y="59" width="120" height="71" as="geometry"/>
                </mxCell>
                <mxCell id="m86QWHCUqIosLc6Ad717-7" value="&lt;font style=&quot;font-size: 14px; color: rgb(0, 0, 0);&quot;&gt;AUTD3デバイス&lt;/font&gt;" style="rounded=0;whiteSpace=wrap;html=1;strokeColor=default;" vertex="1" parent="m86QWHCUqIosLc6Ad717-2">
                    <mxGeometry x="180" width="120" height="40" as="geometry"/>
                </mxCell>
                <mxCell id="m86QWHCUqIosLc6Ad717-8" value="" style="shape=flexArrow;endArrow=classic;html=1;exitX=1;exitY=0.5;exitDx=0;exitDy=0;entryX=0;entryY=0.5;entryDx=0;entryDy=0;strokeColor=#000000;" edge="1" parent="m86QWHCUqIosLc6Ad717-2" source="m86QWHCUqIosLc6Ad717-6" target="m86QWHCUqIosLc6Ad717-5">
                    <mxGeometry width="50" height="50" relative="1" as="geometry">
                        <mxPoint x="150" y="130" as="sourcePoint"/>
                        <mxPoint x="200" y="80" as="targetPoint"/>
                    </mxGeometry>
                </mxCell>
                <mxCell id="m86QWHCUqIosLc6Ad717-9" value="" style="shape=flexArrow;endArrow=classic;html=1;exitX=1;exitY=0.5;exitDx=0;exitDy=0;entryX=0;entryY=0.5;entryDx=0;entryDy=0;strokeColor=#CCCCCC;" edge="1" parent="m86QWHCUqIosLc6Ad717-2">
                    <mxGeometry width="50" height="50" relative="1" as="geometry">
                        <mxPoint x="300" y="94.32999999999998" as="sourcePoint"/>
                        <mxPoint x="340" y="94.32999999999998" as="targetPoint"/>
                    </mxGeometry>
                </mxCell>
                <mxCell id="m86QWHCUqIosLc6Ad717-10" value="" style="group" vertex="1" connectable="0" parent="1">
                    <mxGeometry x="440" y="490" width="480" height="200" as="geometry"/>
                </mxCell>
                <mxCell id="m86QWHCUqIosLc6Ad717-11" value="" style="rounded=0;whiteSpace=wrap;html=1;strokeColor=#000000;" vertex="1" parent="m86QWHCUqIosLc6Ad717-10">
                    <mxGeometry y="20" width="480" height="140" as="geometry"/>
                </mxCell>
                <mxCell id="m86QWHCUqIosLc6Ad717-12" value="&lt;font style=&quot;font-size: 14px; color: rgb(204, 204, 204);&quot;&gt;振動子アレイ&lt;/font&gt;" style="rounded=0;whiteSpace=wrap;html=1;arcSize=17;strokeColor=#CCCCCC;fontColor=#CCCCCC;" vertex="1" parent="m86QWHCUqIosLc6Ad717-10">
                    <mxGeometry x="340" y="59" width="120" height="71" as="geometry"/>
                </mxCell>
                <mxCell id="m86QWHCUqIosLc6Ad717-13" value="&lt;font style=&quot;font-size: 14px; color: rgb(0, 0, 0);&quot;&gt;FPGA&lt;/font&gt;" style="rounded=0;whiteSpace=wrap;html=1;arcSize=17;strokeColor=#000000;fontColor=#CCCCCC;" vertex="1" parent="m86QWHCUqIosLc6Ad717-10">
                    <mxGeometry x="180" y="59" width="120" height="71" as="geometry"/>
                </mxCell>
                <mxCell id="m86QWHCUqIosLc6Ad717-14" value="&lt;font style=&quot;font-size: 14px;&quot;&gt;CPUボード&lt;/font&gt;&lt;div&gt;&lt;font style=&quot;font-size: 14px;&quot;&gt;EtherCAT Slave&lt;/font&gt;&lt;/div&gt;" style="rounded=0;whiteSpace=wrap;html=1;arcSize=17;" vertex="1" parent="m86QWHCUqIosLc6Ad717-10">
                    <mxGeometry x="20" y="59" width="120" height="71" as="geometry"/>
                </mxCell>
                <mxCell id="m86QWHCUqIosLc6Ad717-15" value="&lt;font style=&quot;font-size: 14px; color: rgb(0, 0, 0);&quot;&gt;AUTD3デバイス&lt;/font&gt;" style="rounded=0;whiteSpace=wrap;html=1;strokeColor=#000000;fontColor=#CCCCCC;" vertex="1" parent="m86QWHCUqIosLc6Ad717-10">
                    <mxGeometry x="180" width="120" height="40" as="geometry"/>
                </mxCell>
                <mxCell id="m86QWHCUqIosLc6Ad717-16" value="" style="shape=flexArrow;endArrow=classic;html=1;entryX=0.25;entryY=1;entryDx=0;entryDy=0;width=9;endSize=4.347619047619048;strokeColor=#000000;" edge="1" parent="m86QWHCUqIosLc6Ad717-10">
                    <mxGeometry width="50" height="50" relative="1" as="geometry">
                        <mxPoint x="50" y="59" as="sourcePoint"/>
                        <mxPoint x="50" y="-11" as="targetPoint"/>
                        <Array as="points"/>
                    </mxGeometry>
                </mxCell>
                <mxCell id="m86QWHCUqIosLc6Ad717-17" value="" style="shape=flexArrow;endArrow=classic;html=1;exitX=0.75;exitY=1;exitDx=0;exitDy=0;width=9;endSize=4.347619047619048;strokeColor=#000000;" edge="1" parent="m86QWHCUqIosLc6Ad717-10">
                    <mxGeometry width="50" height="50" relative="1" as="geometry">
                        <mxPoint x="110" y="-11" as="sourcePoint"/>
                        <mxPoint x="110" y="59" as="targetPoint"/>
                        <Array as="points"/>
                    </mxGeometry>
                </mxCell>
                <mxCell id="m86QWHCUqIosLc6Ad717-18" value="" style="shape=flexArrow;endArrow=classic;html=1;exitX=1;exitY=0.5;exitDx=0;exitDy=0;entryX=0;entryY=0.5;entryDx=0;entryDy=0;strokeColor=#CCCCCC;" edge="1" parent="m86QWHCUqIosLc6Ad717-10">
                    <mxGeometry width="50" height="50" relative="1" as="geometry">
                        <mxPoint x="300" y="99.71000000000004" as="sourcePoint"/>
                        <mxPoint x="340" y="99.71000000000004" as="targetPoint"/>
                    </mxGeometry>
                </mxCell>
                <mxCell id="m86QWHCUqIosLc6Ad717-19" value="" style="shape=flexArrow;endArrow=classic;html=1;exitX=1;exitY=0.5;exitDx=0;exitDy=0;entryX=0;entryY=0.5;entryDx=0;entryDy=0;strokeColor=#000000;" edge="1" parent="m86QWHCUqIosLc6Ad717-10">
                    <mxGeometry width="50" height="50" relative="1" as="geometry">
                        <mxPoint x="140" y="99.71000000000004" as="sourcePoint"/>
                        <mxPoint x="180" y="99.71000000000004" as="targetPoint"/>
                    </mxGeometry>
                </mxCell>
                <mxCell id="m86QWHCUqIosLc6Ad717-20" value="" style="shape=flexArrow;endArrow=classic;html=1;exitX=1.008;exitY=0.314;exitDx=0;exitDy=0;exitPerimeter=0;entryX=0.75;entryY=0;entryDx=0;entryDy=0;width=9;endSize=4.347619047619048;strokeColor=#000000;" edge="1" parent="1" source="m86QWHCUqIosLc6Ad717-1" target="m86QWHCUqIosLc6Ad717-6">
                    <mxGeometry width="50" height="50" relative="1" as="geometry">
                        <mxPoint x="600" y="470" as="sourcePoint"/>
                        <mxPoint x="650" y="420" as="targetPoint"/>
                        <Array as="points">
                            <mxPoint x="550" y="170"/>
                        </Array>
                    </mxGeometry>
                </mxCell>
                <mxCell id="m86QWHCUqIosLc6Ad717-21" value="&lt;font style=&quot;font-size: 36px; color: rgb(0, 0, 0);&quot;&gt;⋮&lt;/font&gt;" style="text;html=1;align=center;verticalAlign=middle;whiteSpace=wrap;rounded=0;fontSize=19;fontColor=#CCCCCC;" vertex="1" parent="1">
                    <mxGeometry x="645" y="410" width="70" height="80" as="geometry"/>
                </mxCell>
                <mxCell id="m86QWHCUqIosLc6Ad717-22" value="" style="shape=flexArrow;endArrow=classic;html=1;exitX=0.75;exitY=1;exitDx=0;exitDy=0;width=9;endSize=4.347619047619048;strokeColor=#000000;" edge="1" parent="1" source="m86QWHCUqIosLc6Ad717-6">
                    <mxGeometry width="50" height="50" relative="1" as="geometry">
                        <mxPoint x="331" y="198" as="sourcePoint"/>
                        <mxPoint x="550" y="420" as="targetPoint"/>
                        <Array as="points"/>
                    </mxGeometry>
                </mxCell>
                <mxCell id="m86QWHCUqIosLc6Ad717-23" value="" style="shape=flexArrow;endArrow=classic;html=1;entryX=0.25;entryY=1;entryDx=0;entryDy=0;width=9;endSize=4.347619047619048;strokeColor=#000000;" edge="1" parent="1" target="m86QWHCUqIosLc6Ad717-6">
                    <mxGeometry width="50" height="50" relative="1" as="geometry">
                        <mxPoint x="490" y="420" as="sourcePoint"/>
                        <mxPoint x="560" y="559" as="targetPoint"/>
                        <Array as="points"/>
                    </mxGeometry>
                </mxCell>
                <mxCell id="m86QWHCUqIosLc6Ad717-24" value="" style="shape=flexArrow;endArrow=classic;html=1;exitX=0.25;exitY=0;exitDx=0;exitDy=0;entryX=1;entryY=0.75;entryDx=0;entryDy=0;width=9;endSize=4.347619047619048;strokeColor=#000000;" edge="1" parent="1" source="m86QWHCUqIosLc6Ad717-6" target="m86QWHCUqIosLc6Ad717-1">
                    <mxGeometry width="50" height="50" relative="1" as="geometry">
                        <mxPoint x="331" y="198" as="sourcePoint"/>
                        <mxPoint x="560" y="259" as="targetPoint"/>
                        <Array as="points">
                            <mxPoint x="490" y="221"/>
                        </Array>
                    </mxGeometry>
                </mxCell>
                <mxCell id="m86QWHCUqIosLc6Ad717-25" value="&lt;font style=&quot;font-size: 36px; color: rgb(0, 0, 0);&quot;&gt;⋮&lt;/font&gt;" style="text;html=1;align=center;verticalAlign=middle;whiteSpace=wrap;rounded=0;fontSize=19;" vertex="1" parent="1">
                    <mxGeometry x="515" y="410" width="70" height="80" as="geometry"/>
                </mxCell>
                <mxCell id="m86QWHCUqIosLc6Ad717-26" value="&lt;font style=&quot;font-size: 36px; color: rgb(0, 0, 0);&quot;&gt;⋮&lt;/font&gt;" style="text;html=1;align=center;verticalAlign=middle;whiteSpace=wrap;rounded=0;fontSize=19;" vertex="1" parent="1">
                    <mxGeometry x="470" y="410" width="40" height="80" as="geometry"/>
                </mxCell>
            </root>
        </mxGraphModel>
    </diagram>
</mxfile>